<?xml version="1.0" encoding="UTF-8" standalone="no"?>
<svg
   xmlns:dc="http://purl.org/dc/elements/1.1/"
   xmlns:cc="http://creativecommons.org/ns#"
   xmlns:rdf="http://www.w3.org/1999/02/22-rdf-syntax-ns#"
   xmlns:svg="http://www.w3.org/2000/svg"
   xmlns="http://www.w3.org/2000/svg"
   version="1.1"
   id="svg4737"
   viewBox="0 0 90.874999 48.000201"
   height="13.546723mm"
   width="25.646944mm">
  <defs
     id="defs4739" />
  <metadata
     id="metadata4742">
    <rdf:RDF>
      <cc:Work
         rdf:about="">
        <dc:format>image/svg+xml</dc:format>
        <dc:type
           rdf:resource="http://purl.org/dc/dcmitype/StillImage" />
        <dc:title></dc:title>
      </cc:Work>
    </rdf:RDF>
  </metadata>
  <g
     transform="translate(558.35247,-1294.4315)"
     id="layer1">
    <g
       id="text4780-0"
       style="font-style:normal;font-variant:normal;font-weight:normal;font-stretch:normal;font-size:51.60366058px;line-height:125%;font-family:'League Gothic';-inkscape-font-specification:'League Gothic';letter-spacing:-1.00324368px;word-spacing:0px;fill:#000000;fill-opacity:1;stroke:none;stroke-width:1px;stroke-linecap:butt;stroke-linejoin:miter;stroke-opacity:1"
       transform="scale(1.0032396,0.99677088)">
      <path
         id="path4966"
         style="letter-spacing:-1.00324368px"
         d="m -542.09631,1346.3772 0,-37.9216 4.88823,0 q 5.16541,0 7.65992,2.2929 2.51971,2.2929 2.51971,7.7607 0,2.6709 -0.75591,4.4095 -0.73072,1.7386 -2.69609,3.4268 0.15118,0.05 0.40315,0.252 0.25197,0.1764 0.9323,0.8819 0.68032,0.6803 1.18426,1.6378 0.52914,0.9575 0.93229,2.6961 0.40316,1.7134 0.40316,3.8299 0,10.4316 -8.61741,10.734 l -6.85361,0 z m 5.56856,-5.5182 q 1.86458,0 2.74648,-0.7811 1.38584,-1.3858 1.38584,-5.0646 0,-2.0662 -0.42835,-3.3764 -0.40315,-1.3103 -1.15907,-1.7638 -0.73071,-0.4787 -1.20946,-0.5795 -0.45355,-0.1008 -1.13387,-0.1008 l -0.20157,0 0,11.6662 z m 0,-16.7812 q 0.57953,0 0.8567,-0.025 0.27717,-0.025 1.00788,-0.252 0.73072,-0.2268 1.13387,-0.7055 0.40315,-0.504 0.75591,-1.537 0.37796,-1.0331 0.37796,-2.5198 0,-1.5118 -0.37796,-2.5449 -0.35276,-1.033 -0.75591,-1.5118 -0.40315,-0.5039 -1.13387,-0.7307 -0.73071,-0.2268 -1.00788,-0.252 -0.27717,-0.025 -0.8567,-0.025 l 0,10.1041 z" />
      <path
         id="path4968"
         style="letter-spacing:-1.00324368px"
         d="m -524.35291,1346.3772 0,-37.9216 5.56855,0 0,32.7562 7.38275,0 0,5.1654 -12.9513,0 z" />
      <path
         id="path4970"
         style="letter-spacing:-1.00324368px"
         d="m -510.1875,1338.5913 0,-30.1357 5.56856,0 0,30.1357 q 0,0.3024 0.0252,0.7811 0.0252,0.4536 0.47875,1.2347 0.47874,0.7559 1.36064,0.7559 0.8819,0 1.33545,-0.6803 0.45354,-0.7056 0.45354,-1.4363 l 0.0756,-0.6551 0,-30.1357 5.56856,0 0,30.1357 q 0,0.3024 -0.0504,0.8819 -0.0504,0.5543 -0.45355,1.9906 -0.37795,1.411 -1.08347,2.4945 -0.68032,1.0835 -2.21735,1.9653 -1.51182,0.8568 -3.62838,0.8568 -2.11656,0 -3.65358,-0.8316 -1.51182,-0.8567 -2.21734,-2.0409 -0.68033,-1.1843 -1.08348,-2.3937 -0.37796,-1.2347 -0.42835,-2.041 l -0.0504,-0.8819 z" />
      <path
         id="path4972"
         style="letter-spacing:-1.00324368px"
         d="m -492.64568,1339.4732 0,-0.8819 0,-22.3498 q 0,-0.3024 0.0504,-0.8567 0.0504,-0.5796 0.42835,-1.9906 0.37796,-1.4362 1.08348,-2.5197 0.70552,-1.0835 2.21734,-1.9654 1.53703,-0.8819 3.62839,-0.8819 2.11655,0 3.62838,0.8567 1.53702,0.8567 2.24254,2.041 0.70552,1.1842 1.08347,2.3937 0.37796,1.2095 0.42836,2.0914 l 0.0504,0.8315 0,5.8205 -5.56856,0 0,-5.8205 q 0,-0.3024 -0.0252,-0.7559 -0.0252,-0.4788 -0.50394,-1.2599 -0.45355,-0.7811 -1.33544,-0.7811 -0.85671,0 -1.33545,0.7055 -0.45355,0.7055 -0.45355,1.3606 l -0.0504,0.7308 0,22.8033 q 0,0.3024 0.0252,0.7812 0.0252,0.4535 0.47875,1.2346 0.47874,0.7811 1.33545,0.7811 0.88189,0 1.33544,-0.7055 0.47875,-0.7055 0.47875,-1.3606 l 0.0504,-0.7308 0,-6.8536 -2.21734,0 0,-4.7118 7.7859,0 0,18.8978 -3.30082,0 -0.65513,-1.8142 q -1.76379,2.2174 -4.3339,2.2174 -1.96537,0 -3.4016,-0.8316 -1.41104,-0.8567 -2.01577,-2.0409 -0.57954,-1.1843 -0.8567,-2.3937 -0.27717,-1.2095 -0.27717,-2.041 z" />
    </g>
    <path
       id="path4784-9"
       d="m -547.35247,1342.4314 0,-40.952 71,-0.017 0,17.3542 8.875,0 0,-24.3851 -90.875,0 4.48985,48.0002 z"
       style="fill:#ffe521;fill-opacity:1;fill-rule:evenodd;stroke:none;stroke-width:1px;stroke-linecap:butt;stroke-linejoin:miter;stroke-opacity:1" />
  </g>
</svg>
