<?xml version="1.0" encoding="UTF-8" standalone="no"?>
<svg
   xmlns:dc="http://purl.org/dc/elements/1.1/"
   xmlns:cc="http://creativecommons.org/ns#"
   xmlns:rdf="http://www.w3.org/1999/02/22-rdf-syntax-ns#"
   xmlns:svg="http://www.w3.org/2000/svg"
   xmlns="http://www.w3.org/2000/svg"
   width="53.659748mm"
   height="29.163029mm"
   viewBox="0 0 53.659748 29.163029"
   version="1.1"
   id="svg2075">
  <defs
     id="defs2069" />
  <metadata
     id="metadata2072">
    <rdf:RDF>
      <cc:Work
         rdf:about="">
        <dc:format>image/svg+xml</dc:format>
        <dc:type
           rdf:resource="http://purl.org/dc/dcmitype/StillImage" />
        <dc:title></dc:title>
      </cc:Work>
    </rdf:RDF>
  </metadata>
  <g
     id="layer1"
     transform="translate(52.532255,-66.216105)">
    <rect
       style="fill:#f60000;fill-opacity:1;stroke:none;stroke-width:1.01256;stroke-linecap:round;stroke-linejoin:round;stroke-opacity:0"
       id="rect5546"
       width="53.659748"
       height="29.346102"
       x="-52.532253"
       y="66.216103" />
    <g
       aria-label="BLUG"
       transform="scale(1.0032396,0.99677086)"
       id="text4780-0"
       style="font-style:normal;font-variant:normal;font-weight:normal;font-stretch:normal;font-size:31.2232px;line-height:0%;font-family:'League Gothic';-inkscape-font-specification:'League Gothic';letter-spacing:-0.607021px;word-spacing:0px;fill:#ffffff;fill-opacity:1;stroke:none;stroke-width:0.264583px;stroke-linecap:butt;stroke-linejoin:miter;stroke-opacity:1">
      <path
         d="M -43.618843,95.323532 V 72.37448 h 2.966204 c 1.998285,0 3.559445,0.374679 4.58981,1.342598 1.030366,0.967919 1.56116,2.466633 1.56116,4.745926 0,1.092812 -0.09367,1.904615 -0.437125,2.653972 -0.343455,0.749357 -0.874249,1.373821 -1.654829,2.091955 0.843026,0.468348 1.46749,1.342597 1.967061,2.810088 0.249786,0.718133 0.374679,1.654829 0.374679,2.810088 0,1.717276 -0.312232,3.247212 -1.092812,4.433694 -0.78058,1.186482 -2.123178,1.967062 -4.121463,2.060731 z m 3.372105,-13.488422 c 0.281009,0 0.936696,0.03122 1.498714,-0.343455 0.562018,-0.374679 0.999142,-1.124036 0.999142,-2.716419 0,-1.592383 -0.437124,-2.34174 -0.999142,-2.716418 -0.562018,-0.374679 -1.217705,-0.343455 -1.498714,-0.343455 z m 0,10.14754 c 0.281009,0 0.936696,0.06245 1.498714,-0.343455 0.562018,-0.405902 0.999142,-1.311375 0.999142,-3.184767 0,-1.873392 -0.437124,-2.778865 -0.999142,-3.184766 -0.562018,-0.405902 -1.217705,-0.343455 -1.498714,-0.343455 z"
         style="letter-spacing:-0.607021px;fill:#ffffff;fill-opacity:1;stroke-width:0.264583px"
         id="path5479" />
      <path
         d="m -32.860669,72.37448 h 3.372105 v 19.826732 h 4.464918 v 3.12232 h -7.837023 z"
         style="letter-spacing:-0.607021px;fill:#ffffff;fill-opacity:1;stroke-width:0.264583px"
         id="path5481" />
      <path
         d="m -15.295844,72.37448 v 18.234349 c -0.03122,0.936696 -0.218563,1.779722 -0.562018,2.497856 -0.281009,0.624464 -0.718134,1.217705 -1.342598,1.686053 -0.624464,0.499571 -1.46749,0.78058 -2.591525,0.78058 -1.124035,0 -1.998285,-0.281009 -2.622749,-0.78058 -0.624464,-0.468348 -1.030366,-1.061589 -1.311374,-1.686053 -0.343456,-0.718134 -0.530795,-1.56116 -0.562018,-2.497856 V 72.37448 h 3.372106 v 18.234349 c 0,0.655687 0.156116,1.092812 0.468348,1.436267 0.156116,0.156116 0.374678,0.249786 0.655687,0.249786 0.593241,0 0.874249,-0.374679 0.999142,-0.843027 0.09367,-0.218562 0.124893,-0.499571 0.124893,-0.843026 V 72.37448 Z"
         style="letter-spacing:-0.607021px;fill:#ffffff;fill-opacity:1;stroke-width:0.264583px"
         id="path5483" />
      <path
         d="m -8.0346429,80.617405 v -3.528222 c 0,-0.624464 -0.1248928,-1.061588 -0.4371248,-1.436267 -0.156116,-0.156116 -0.4059016,-0.249785 -0.6869104,-0.249785 -0.5932408,0 -0.8742499,0.437124 -0.9991429,0.843026 -0.09367,0.249786 -0.124892,0.530794 -0.124892,0.843026 v 13.800655 c 0,0.655687 0.156116,1.092812 0.4683477,1.436267 0.156116,0.156116 0.3746784,0.249786 0.6556872,0.249786 0.5932408,0 0.8742496,-0.374679 0.9991424,-0.843027 0.09367,-0.218562 0.1248928,-0.499571 0.1248928,-0.843026 v -4.152686 h -1.3425976 v -2.841311 h 4.7147032 V 95.323532 H -6.6608221 L -7.0667237,94.23072 c -0.624464,0.78058 -1.5299368,1.342598 -2.6227488,1.342598 -1.0928115,0 -1.8421685,-0.281009 -2.4041865,-0.78058 -0.562017,-0.468348 -0.936696,-1.061589 -1.186481,-1.686053 -0.281009,-0.718134 -0.405902,-1.56116 -0.374679,-2.497856 V 77.089183 c 0.03122,-0.905472 0.218563,-1.748499 0.562018,-2.466632 0.281009,-0.624464 0.68691,-1.248928 1.311374,-1.717276 0.624464,-0.468348 1.498714,-0.78058 2.6227489,-0.78058 1.1240352,0 1.9670616,0.312232 2.5915256,0.78058 0.624464,0.468348 1.0615888,1.092812 1.3425976,1.717276 0.3434552,0.718133 0.5307944,1.56116 0.5620176,2.466632 v 3.528222 z"
         style="letter-spacing:-0.607021px;fill:#ffffff;fill-opacity:1;stroke-width:0.264583px"
         id="path5485" />
    </g>
    <path
       id="path4784-9"
       d="M -45.876613,95.258851 V 70.4805 L -2.9174675,70.47021 V 95.379134 H 0.13379255 L 1.1274935,66.216105 H -52.532255 l 2.716621,29.042924 z"
       style="fill:#ffe521;fill-opacity:1;fill-rule:evenodd;stroke:none;stroke-width:0.26458332px;stroke-linecap:butt;stroke-linejoin:miter;stroke-opacity:1" />
  </g>
</svg>
